<mxfile host="app.diagrams.net" modified="2023-10-10T20:36:28.398Z" agent="Mozilla/5.0 (Windows NT 10.0; Win64; x64) AppleWebKit/537.36 (KHTML, like Gecko) Chrome/117.0.0.0 Safari/537.36" version="22.0.4" etag="e3XhyXJmvDI8pYFGoMXZ" type="github">
  <diagram name="Seite-1" id="6DVpnnnFoikJ8-1d5k9n">
    <mxGraphModel>
      <root>
        <mxCell id="0" />
        <mxCell id="1" parent="0" />
      </root>
    </mxGraphModel>
  </diagram>
</mxfile>
